<svg width="2234" height="432" viewBox="0 0 2234 432" fill="none" xmlns="http://www.w3.org/2000/svg">
<g clip-path="url(#clip0_1_66)">
<path d="M2234 0.599976H0V431.6H2234V0.599976Z" fill="black"/>
<path d="M699.23 168.26C715.33 160.82 729.96 167.17 744.53 173.29C745.81 173.83 747.17 176.75 746.76 178C746.33 179.32 743.78 180.81 742.24 180.72C739.48 180.56 736.82 179.11 734.05 178.47C726.85 176.81 719.67 174.63 712.36 173.93C706.49 173.37 704.84 175.82 704.49 182.99C713.1 173.17 721.66 178.43 730.16 181.95C737.74 185.09 742.59 191.4 747.5 198.16C741.75 196.34 735.99 194.51 730.24 192.69C730.06 193.07 729.88 193.46 729.7 193.84C732.79 195.14 735.92 196.35 738.94 197.78C744.01 200.17 748.6 203.14 748.83 209.55C749.06 215.99 745.7 220.76 740.25 223.3C735.44 225.55 730.01 227.59 724.83 227.66C716.62 227.78 708.28 226.73 700.19 225.15C692.43 223.63 691.66 221.25 694.58 213.75C695.08 212.46 695.6 211.18 696.17 209.73C700 209.23 703.58 208.76 708.65 208.1C706.21 204.94 704.49 202.71 702.05 199.56C714.49 201.87 725.33 205.23 735.21 212.54C733.79 214.62 732.79 216.1 731.49 217.99C737.18 218.26 740.83 216.23 743.55 211.7C741.46 207.11 737.08 206.24 733.16 204.91C725.85 202.43 718.38 200.41 711.1 197.86C696.48 192.75 692.48 182.39 699.39 168.16L699.22 168.25L699.23 168.26Z" fill="white"/>
<path d="M374.57 188.1C382.18 178.57 388.71 177.02 403.91 180.96C401.09 185.12 396.68 188.4 398.35 194.45C399.15 197.35 395.98 198.83 393.3 199.11C389.61 199.5 385.88 199.56 382.16 199.57C373.45 199.6 372.05 200.86 372.02 209.36C372.02 211.59 372.4 213.83 372.65 216.44C380.62 215.82 378.56 208.95 380.82 204.3C383.38 204.08 386.1 203.85 389.84 203.53C388.81 205.06 388.49 205.69 388.03 206.2C384.18 210.5 384.62 212.52 389.83 213.5C393.2 214.13 396.67 214.26 400.04 214.88C403.09 215.44 406.07 216.36 409.38 217.2C409.62 219.24 409.72 220.88 410.01 222.49C411.6 231.31 411.13 232.1 402.58 232.12C393.7 232.15 384.8 232.15 375.95 231.58C368.42 231.1 367.23 229.56 367.28 221.96C367.36 209.94 367.73 197.93 367.88 185.91C367.92 182.48 367.72 179.05 367.47 175.62C366.99 169.02 367.9 167.51 374.74 166.87C384.08 166 393.47 165.67 402.89 164.63L372.66 163.8C378.11 158.83 397.69 158.1 408.91 161.88C409.23 162.35 409.7 162.78 409.83 163.3C412.68 174.08 411.99 175.03 400.65 175.36C393.49 175.57 386.33 175.62 379.17 175.72C376.18 175.76 373.25 176.11 372.13 179.41C371.1 182.44 370.78 185.52 374.57 188.07V188.1ZM394.93 221.56C394.92 221.72 394.9 221.89 394.89 222.05L401.5 222.23V221.74C399.32 221.68 397.13 221.62 394.93 221.56ZM385.27 188.78C385.27 188.86 385.27 188.94 385.27 189.02L388.6 189.11C388.6 189.03 388.6 188.95 388.6 188.87L385.27 188.78Z" fill="white"/>
<path d="M1792.68 217.84C1793.17 216.54 1793.71 215.26 1794.14 213.94C1797.13 204.89 1795.21 201.99 1785.75 201.24C1785.18 201.2 1784.6 201.26 1784.04 201.18C1780.8 200.74 1777.27 200.04 1777.57 195.92C1777.84 192.29 1781.31 192.05 1784.19 191.92C1786.89 191.8 1789.61 192.03 1792.32 191.27C1787.42 190.9 1782.53 190.52 1776.61 190.07C1779.57 184.75 1783.44 184.73 1786.96 185.06C1790.85 185.43 1795.62 185.57 1798.2 187.85C1800.38 189.78 1800.54 194.62 1800.58 198.19C1800.65 205.27 1799.91 212.36 1799.74 219.45C1799.65 223.26 1797.96 225.67 1794.28 225.81C1783.45 226.21 1772.54 227.81 1761.86 224.53C1751.76 221.43 1747.44 216.35 1747.28 205.94C1747.09 193.41 1746.01 180.68 1751.36 168.76C1752.24 166.79 1753.46 164.57 1755.17 163.44C1764.27 157.44 1781.77 156.09 1794.22 160.48C1787.4 164.21 1780.57 162.11 1774.18 163.57C1778.78 163.7 1783.39 163.77 1787.99 163.97C1789.98 164.06 1792.2 163.96 1793.86 164.82C1795.41 165.63 1797.3 167.6 1797.29 169.06C1797.29 170.37 1795.09 172.49 1793.56 172.81C1790.25 173.5 1786.73 173.11 1783.32 173.45C1776.51 174.13 1769.65 174.61 1762.94 175.89C1755.28 177.34 1752.66 180.28 1752.23 188.13C1751.82 195.64 1750.06 203.43 1754.44 211.35C1755.89 209.3 1756.94 207.81 1758.27 205.93C1760.43 206.48 1762.57 207.41 1764.74 207.5C1768.64 207.66 1772.78 208.09 1776.42 207.04C1783.08 205.12 1787.04 206.89 1787.95 214.22C1788.37 217.61 1790.11 217.52 1792.67 217.82L1792.68 217.84ZM1773.74 216.51L1774.45 216.71L1774.55 216.52H1773.74V216.51Z" fill="white"/>
<path d="M1426.04 219.64C1426.01 200.77 1425.98 183.1 1425.96 164.44C1429.14 163.66 1432.31 162.59 1435.56 162.15C1445.37 160.81 1455.01 162.11 1464.38 165.03C1472.83 167.66 1477.49 173.88 1477.92 182.86C1478.26 190 1478.36 197.17 1478.34 204.32C1478.32 211.59 1473.67 218.96 1466.69 220.68C1453.49 223.92 1440.19 223.55 1426.05 219.64H1426.04ZM1466.87 199.51C1465.7 203.65 1464.54 207.79 1463.42 211.73C1469.99 210.28 1472.11 208.17 1472.32 202.08C1472.5 196.66 1472.51 191.23 1472.4 185.81C1472.25 178.76 1469.8 174.76 1463.16 173.17C1455.16 171.25 1446.94 169.93 1438.74 169.21C1431.92 168.61 1429.99 170.78 1429.92 177.59C1429.82 187.01 1429.94 196.44 1430.17 205.86C1430.22 207.82 1431.19 209.76 1432.14 213.11C1437.68 202.42 1435.63 192.4 1437.25 182.91C1437.67 185.21 1437.57 187.48 1437.55 189.74C1437.54 192.02 1437.47 194.32 1437.66 196.59C1438.32 204.39 1439.34 205.37 1446.97 205.6C1449.82 205.69 1452.69 205.45 1455.54 205.62C1460.56 205.93 1464.37 204.49 1466.87 199.51ZM1452.15 213.37C1448.66 211.06 1445.19 210.6 1441.77 213.09L1452.15 213.37Z" fill="white"/>
<path d="M1277.18 194.99C1277.07 199 1276.93 203 1276.86 207.01C1276.74 213.67 1273.52 218.48 1267.8 221.55C1256.38 227.66 1244.8 227.84 1233.21 221.94C1227.3 218.93 1224.16 214.29 1224.58 207.44C1225.07 199.44 1225.29 191.42 1225.84 183.43C1226.29 176.74 1230.13 172.33 1236.12 169.78C1248.69 164.41 1260.77 165.89 1272.24 172.93C1275.85 175.15 1277.88 178.32 1277.24 183.01C1276.71 186.95 1276.93 190.99 1276.82 194.98H1277.19L1277.18 194.99ZM1237.05 212.7C1246.28 217.76 1256.02 217.39 1265.72 214.72C1269.8 213.6 1272.5 208.65 1272.17 204.76C1271.68 199.09 1271.19 193.42 1270.88 187.74C1270.48 180.54 1268.88 178.09 1262.15 175.75C1254.02 172.92 1245.77 173.04 1237.8 176.08C1235.39 177 1232.53 179.26 1231.76 181.54C1228.93 189.94 1229.58 198.54 1231.23 207.72C1235.53 205.75 1235.66 202.82 1235.75 200.01C1235.88 195.73 1235.81 191.44 1235.84 187.15C1235.88 181 1237.44 178.81 1243.37 177.87C1246.3 177.41 1249.38 177.94 1252.4 178.02C1237.77 182.62 1237.66 182.76 1238.49 198.09C1238.54 198.95 1238.59 199.8 1238.66 200.66C1239.22 207.89 1240.14 209.03 1247.3 209.53C1250.67 209.76 1254.16 209.5 1257.48 208.86C1261.19 208.15 1263.47 205.59 1263.67 201.65C1263.87 197.83 1263.9 194.01 1264 190.19C1265.28 192.24 1265.2 194.22 1265.18 196.19C1265.16 198.48 1265.15 200.76 1265.22 203.05C1265.48 211.38 1264.47 213.4 1256.56 214.84C1251.96 215.67 1247.02 214.81 1242.25 214.42C1240.48 214.28 1238.79 213.31 1237.06 212.71L1237.05 212.7Z" fill="white"/>
<path d="M185.35 217.58C178.28 215.77 171.22 213.97 163.98 212.12C165.01 206.04 166.05 201.07 166.65 196.06C167.21 191.33 167.31 186.55 167.61 181.8C168.21 181.82 168.82 181.84 169.42 181.86C169.25 187.96 169.01 194.05 168.94 200.15C168.89 204.47 171.15 207.02 175.37 208.01C180.1 209.12 184.78 210.47 189.5 211.61C194.88 212.9 198.1 217.35 197.38 222.82C196.98 225.81 195.16 227.35 192.15 227.45C181.45 227.78 170.97 226.3 160.91 222.71C155.9 220.92 153.11 216.71 153.06 211.4C152.96 200.81 152.84 190.2 153.57 179.65C154.01 173.31 156.17 167.18 163.24 164.69C169.66 154.8 180.17 157.41 189.38 156.25C193.35 155.75 195.56 158.07 196.79 161.89C198.75 167.95 197.35 170.29 190.93 171.01C183.27 171.88 175.58 172.65 167.97 173.91C160.69 175.11 159.19 177.04 159.05 184.08C158.91 190.66 158.83 197.26 158.98 203.84C159.14 210.59 160.96 212.86 167.61 214.73C173.31 216.34 179.09 217.66 184.83 219.11C185 218.6 185.17 218.09 185.34 217.58H185.35ZM180.57 160.41C180.57 160.7 180.55 160.98 180.55 161.27L188.35 161.48C188.35 161.19 188.37 160.91 188.37 160.62L180.57 160.41Z" fill="white"/>
<path d="M2082.96 223.36C2083.74 223.01 2084.52 222.66 2085.28 222.3C2089.4 220.35 2092.57 217.58 2091.97 212.57C2091.43 208.1 2086.15 203.44 2081.19 203.12C2069.88 202.39 2058.56 201.93 2047.25 201.36V201.38C2050.44 196.38 2055.6 195.92 2060.79 195.43C2067.32 194.82 2073.84 194.15 2080.37 193.49C2084.15 193.11 2087.21 191.74 2086.98 187.29C2086.76 182.83 2083.22 181.84 2079.71 181.55C2073.73 181.07 2067.72 181.01 2061.73 180.69C2057.8 180.48 2053.88 180.11 2047.8 179.65C2050.59 177.2 2051.84 175.16 2053.11 175.14C2063.03 174.98 2073.08 174.3 2082.84 175.63C2090.36 176.65 2092.81 182.47 2092.13 190.45C2091.83 194.04 2091.51 198.2 2092.98 201.24C2095.82 207.12 2096.56 213.03 2096.76 219.37C2096.93 224.62 2094.93 228.38 2090.64 230.69C2087.69 232.28 2084.21 233.75 2080.97 233.73C2071.86 233.68 2062.75 232.86 2053.64 232.27C2052.52 232.2 2051.27 231.94 2050.38 231.34C2049.29 230.61 2047.89 229.48 2047.77 228.4C2047.66 227.4 2048.91 225.49 2049.85 225.29C2053.1 224.59 2054.56 222.93 2055.23 219.66C2055.96 216.12 2059.37 216.1 2062.18 215.95C2069.54 215.57 2076.91 215.38 2084.9 215.1C2084.24 218.1 2083.66 220.76 2083.05 223.4C2079.07 222.57 2075.13 221.91 2071.38 223.45C2071.45 224.05 2071.51 224.66 2071.58 225.26C2075.37 224.62 2079.16 223.99 2082.96 223.35V223.36Z" fill="white"/>
<path d="M251.32 223.78C250.82 219.74 249.99 216.21 250.01 212.68C250.08 199.55 250.42 186.41 250.67 173.28C250.69 172.14 250.36 170.67 250.93 169.92C252.16 168.3 253.96 165.81 255.38 165.9C258.54 166.11 257.88 168.89 257.3 171.23C256.2 175.68 255.48 180.15 258.28 185.4C262.07 181.45 265.85 178.28 271.5 179.1C279.41 180.24 287.76 177.92 295.43 182.24C287.68 188.18 278.65 184.28 269.14 186.07C279.56 186.36 288.74 186.61 297.81 186.85C301.49 182.38 301.11 177.6 300.43 172.72C299.9 168.92 300.87 165.85 305.06 164.77C308.56 163.87 311.2 166.08 310.01 169.33C303.77 186.31 305.76 203.6 307.49 220.94C307.64 222.43 306.46 225.06 305.29 225.48C302.83 226.36 300.83 224.76 300.51 222.04C300.25 219.78 300.4 217.47 300.39 215.19C300.39 210.61 300.53 206.03 300.36 201.46C300.22 197.81 298.47 195.75 294.4 195.82C284.11 196.01 273.82 195.93 263.53 196.02C258.31 196.07 256.79 197.26 256.37 202.42C255.98 207.26 256.17 212.14 256.08 217.01C256.03 219.49 256.71 222.34 251.31 223.76L251.32 223.78Z" fill="white"/>
<path d="M627.24 164.07C627.77 163.85 628.28 163.59 628.82 163.41C632.19 162.3 636.18 161.08 637.72 165.29C639.32 169.64 635 170.79 632.05 172.45C626.57 175.55 621.1 178.67 615.76 181.99C609.51 185.88 609.34 187.92 614.4 193.12C622.15 201.09 629.89 209.06 637.65 217.02C639.77 219.19 640.42 221.52 637.96 223.69C635.61 225.77 633.2 225.19 631.18 222.95C624.1 215.09 616.86 207.37 610.07 199.28C606.72 195.29 603.67 192.13 597.85 193.94C590.81 196.13 588.36 198.66 587.79 205.94C587.45 210.21 587.65 214.53 587.27 218.79C587.17 219.89 585.82 220.88 585.04 221.93C583.9 220.94 581.8 219.97 581.77 218.95C581.63 213.82 581.4 208.54 582.39 203.55C584.33 193.8 583.24 184.17 582.52 174.47C582.35 172.19 582.09 169.88 582.32 167.63C582.59 164.98 584.34 163.39 587.08 163.99C590.03 164.64 590.28 166.61 589.23 169.26C586.85 175.27 588.12 181.23 589.61 187.52C592.04 179.49 598.74 176.74 604.78 173.2C610.71 169.73 616.49 166.02 622.41 162.54C624.49 161.32 626.83 160.33 627.42 164.15C622.9 166.73 618.4 169.33 613.89 171.92C608.16 175.29 602.18 178.35 598.14 183.92C603.88 180.57 610.2 177.95 613.69 171.75C619.54 171.51 623.11 167.3 627.24 164.05V164.07Z" fill="white"/>
<path d="M1994.56 188.37C1992.9 185.5 1991.24 182.62 1989.58 179.75C1989.02 180.01 1988.47 180.27 1987.91 180.53C1992.45 191.47 1996.95 202.43 2001.55 213.35C2002.77 216.24 2004.57 218.91 2005.54 221.87C2006.03 223.36 2005.25 225.26 2005.04 227.01C2003.51 226.76 2002.6 226.84 2002.47 226.56C1999.02 219.11 1993.43 216.21 1985.26 217.77C1982.52 218.29 1979.54 217.95 1976.72 217.63C1969.69 216.84 1963 216.64 1958.82 223.95C1958.31 224.85 1957.1 225.66 1956.08 225.87C1954.81 226.13 1953 226.18 1952.17 225.46C1951.39 224.79 1951.55 223 1951.36 221.69C1951.33 221.46 1951.57 221.17 1951.71 220.92C1958.29 208.27 1964.88 195.63 1971.44 182.97C1972.49 180.95 1973.75 178.95 1974.32 176.79C1975.19 173.48 1976.54 170.78 1980.22 170.35C1984.3 169.87 1987.63 171.61 1989.54 175.15C1991.82 179.37 1993.62 183.86 1995.62 188.23C1995.27 188.27 1994.91 188.32 1994.56 188.36V188.37ZM1976.54 193.16C1972.55 197.51 1969.1 202.12 1968.8 208.1C1977 207.94 1984.61 207.8 1993.49 207.63C1989.24 199.16 1985.53 191.78 1980.84 182.45C1978.82 187.36 1977.59 190.36 1976.36 193.35L1976.55 193.15L1976.54 193.16Z" fill="white"/>
<path d="M837.78 214.62C848.04 213.23 849.94 211.16 849.76 200.96C849.57 190.72 849.17 180.49 848.9 170.25C848.81 167.02 851.19 164.67 854.22 165.08C857.51 165.52 858.05 167.71 857.86 170.7C857.15 181.81 856.34 192.93 856.17 204.06C856.04 212.61 851.99 218.09 844.61 221.46C833.69 226.46 822.68 227.24 811.41 222.24C804.65 219.24 800.99 214.51 801.09 207.02C801.17 200.73 801.33 194.43 801.24 188.14C801.15 182.45 800.76 176.76 800.5 171.08C800.46 170.23 800.21 169.34 800.38 168.53C800.97 165.66 802.76 163.85 805.75 164.07C809.04 164.31 809.8 166.58 809.53 169.57C808.65 179.22 807.59 188.87 807.11 198.54C806.53 210.27 809.4 213.92 821.36 215.43C826.8 216.12 832.5 214.79 838.08 214.38L837.79 214.61L837.78 214.62Z" fill="white"/>
<path d="M964.44 177.69C958.24 183.43 953.47 187.81 948.74 192.24C938.06 202.26 937.62 202.29 927.77 191.58C922.59 185.95 917.55 180.19 911.47 173.4C917.21 172.69 919.8 175.92 922.71 178.06C925.61 180.2 928.3 182.62 931.54 185.29C933.84 179.44 929 176.74 927.99 171.48C930.54 173.71 932.45 175.15 934.09 176.85C937.05 179.93 939.88 180.06 942.98 177.08C946.91 173.31 950.85 169.55 954.94 165.96C956.59 164.51 958.64 163.53 961 162.84C959.47 168.61 954.38 171.42 950.66 175.25C946.89 179.12 942.66 182.53 938.63 186.14L939.52 187.57C940.78 187.07 942.28 186.85 943.25 186.01C949.53 180.59 955.69 175.04 961.89 169.53C963.38 168.21 964.67 166.53 966.38 165.63C969.31 164.08 972.98 166.2 972.37 169.27C969.23 185.16 972.31 201.23 970.64 217.13C970.4 219.39 970.72 222.38 967.51 222.13C964.3 221.88 965.13 219.02 965.2 216.73C965.53 205.86 965.77 194.99 965.94 184.12C965.96 182.8 965.35 181.46 964.44 177.69Z" fill="white"/>
<path d="M494.72 166.59C502.62 165.68 510.51 164.62 518.44 163.93C521.35 163.68 524.54 164.35 524.51 168.27C524.48 171.95 521.65 172.61 518.55 172.97C510.63 173.89 502.68 174.75 494.83 176.15C487.86 177.39 485.94 179.68 485.65 186.42C485.35 193.27 485.28 200.14 485.54 206.99C485.78 213.47 487.55 215.29 494.13 216.63C502.45 218.33 510.54 221.65 519.38 219.72C522.1 219.13 524.57 220.56 524.74 223.83C524.93 227.45 522.75 229.29 519.39 228.87C509.22 227.6 499 226.43 488.96 224.43C483.07 223.26 479.66 218.53 479.56 212.54C479.37 201.98 479.51 191.39 480.06 180.85C480.39 174.47 483.96 169.63 489.69 166.56C491.37 166.56 493.05 166.57 494.73 166.58L494.72 166.59Z" fill="white"/>
<path d="M1124.11 220.1C1123.97 203.84 1123.84 188.21 1123.71 172.59C1123.71 171.73 1123.64 170.87 1123.65 170.02C1123.67 167.64 1123.8 164.93 1126.95 165.09C1130.43 165.27 1129.54 168.02 1129.21 170.29C1128.97 171.98 1128.81 173.7 1128.83 175.41C1128.93 182.94 1130.16 184.15 1137.89 184.37C1148.43 184.68 1158.96 184.95 1169.52 185.24C1173.43 179.01 1170.98 172.78 1169.94 165.76C1172.89 165.09 1175.41 164.53 1179.05 163.7C1175.76 183.43 1175.19 202.01 1177.58 220.63C1171.93 222.77 1170.62 222.17 1170.77 217.25C1170.93 212.11 1171.43 206.99 1171.51 201.85C1171.55 199.09 1171.02 196.33 1170.74 193.58C1158.3 193.47 1146.66 193.33 1135.02 193.3C1131.19 193.29 1129.24 195.51 1129.2 199.24C1129.14 204.66 1129.2 210.09 1129.27 215.51C1129.32 219.2 1129.36 219.2 1124.13 220.1H1124.11Z" fill="white"/>
<path d="M1646.84 185.31C1646.52 188.61 1646 191.91 1645.93 195.22C1645.77 203.52 1645.73 211.82 1645.83 220.12C1645.86 222.74 1645.48 225 1642.48 224.96C1639.19 224.92 1639.48 222.35 1639.62 219.92C1640.27 208.49 1640.92 197.05 1641.35 185.61C1641.48 182.25 1640.65 178.85 1640.72 175.49C1640.77 173.49 1641.1 170.75 1642.41 169.68C1644.82 167.7 1646.95 169.42 1648.85 171.65C1655.16 179.05 1661.66 186.29 1668.13 193.55C1668.84 194.35 1669.86 194.88 1672.13 196.59C1670.07 189.12 1665.25 185.48 1661.75 181.09C1658.24 176.68 1654.1 172.78 1651.1 167.48C1652.63 168.32 1654.45 168.87 1655.64 170.05C1660.1 174.5 1664.36 179.15 1668.67 183.75C1670.24 185.42 1671.43 187.8 1673.34 188.74C1681.77 192.87 1682.74 200.84 1684.13 208.62C1684.71 211.88 1684.98 215.2 1685.61 220.25C1682.52 218.43 1680.67 217.83 1679.52 216.59C1671.75 208.18 1664.16 199.59 1656.42 191.14C1654.21 188.72 1651.7 186.58 1649.32 184.31C1648.48 184.64 1647.64 184.98 1646.8 185.31H1646.84Z" fill="white"/>
<path d="M1367.4 210.32C1366.61 212.72 1365.92 214.83 1365.59 215.83C1361.96 218.45 1359.17 220.59 1356.23 222.49C1355.36 223.05 1354.04 223.15 1352.94 223.1C1346.66 222.82 1340.38 222.52 1334.11 222.04C1330.85 221.79 1328.96 220.05 1328.92 216.49C1328.76 200.79 1328.41 185.1 1328.44 169.4C1328.44 167.52 1330.15 165.45 1331.55 163.9C1331.95 163.46 1334.92 164.22 1335.16 164.94C1335.8 166.86 1335.91 169.1 1335.64 171.14C1335.14 175 1333.74 178.8 1333.58 182.65C1333.27 190.35 1333.38 198.08 1333.65 205.79C1333.87 212.25 1334.92 213.27 1341.16 213.71C1345.94 214.05 1350.75 214.01 1355.69 213.08C1350.09 212.66 1344.5 212.24 1339.64 211.87C1340.66 199.61 1341.59 188.38 1342.52 177.16C1342.84 177.16 1343.17 177.16 1343.49 177.16C1343.31 183.78 1342.77 190.42 1343.04 197.03C1343.36 204.91 1344.16 205.44 1351.91 206.8C1356.67 207.64 1361.44 208.48 1366.2 209.35C1366.44 209.39 1366.63 209.7 1367.38 210.34L1367.4 210.32Z" fill="white"/>
<path d="M1694.51 175.12C1694.08 190.94 1693.67 206.75 1693.16 222.56C1693.12 223.82 1692.66 225.6 1691.77 226.14C1690.89 226.69 1688.82 226.44 1688.04 225.71C1687.27 224.99 1686.8 222.72 1687.34 222.03C1689.88 218.8 1688.44 215.57 1688.04 212.24C1687.74 209.72 1688.02 207.13 1687.95 204.58C1687.69 194.95 1687.31 185.32 1687.18 175.69C1687.16 173.9 1687.57 171.65 1688.68 170.45C1689.49 169.58 1692.22 169.43 1693.3 170.16C1694.65 171.06 1695.19 173.18 1696.07 174.77L1694.49 175.11L1694.51 175.12Z" fill="white"/>
<path d="M499.66 180.07C494.91 185.19 492.35 200.1 495.43 205.68C496.27 207.2 498.28 208.49 500.01 209.02C504.92 210.51 509.97 211.55 514.96 212.78C517.59 213.42 520.21 214.08 522.84 214.74C522.84 215.32 522.84 215.9 522.84 216.49C521.45 216.96 520.01 217.95 518.68 217.81C510.75 216.95 502.83 215.97 494.95 214.73C491.82 214.24 490.07 212.4 490.55 208.65C491.39 202.15 491.83 195.59 492.28 189.04C492.6 184.35 494.1 180.81 499.66 180.08V180.07Z" fill="white"/>
<path d="M615.07 188.58C622.17 183.89 628.2 179.91 634.24 175.93C634.59 176.32 634.94 176.72 635.28 177.11C633.07 179.4 630.84 181.68 628.65 184C625.7 187.11 625.27 190.41 627.95 193.95C630.52 197.35 633.08 200.76 635.53 204.24C637.07 206.44 638.41 208.78 640.67 212.38C632.34 211.85 630.11 206.1 626.54 202.35C622.86 198.49 619.68 194.16 615.07 188.57V188.58Z" fill="white"/>
<path d="M838.07 214.39C832.38 214.3 826.6 214.83 821.02 213.98C813.37 212.83 811.7 210.17 811.88 202.3C812.06 194.35 812.31 186.4 813.2 178.46C813.51 185.74 813.99 193.02 814.07 200.3C814.12 205.14 816.42 207.78 820.94 208.61C823.45 209.07 826.04 209.36 828.59 209.34C839.22 209.28 842.22 206.39 842.91 195.74C843.08 193.18 843.06 190.6 843.88 188.04C843.75 192.78 843.14 197.57 843.62 202.25C844.18 207.79 841.99 211.54 837.8 214.62C837.79 214.62 838.07 214.39 838.07 214.39Z" fill="white"/>
<path d="M1559.98 169.85C1559.06 184.68 1558.15 199.39 1557.2 214.78C1553.17 213.47 1553.18 211.14 1553.18 208.98C1553.21 197.33 1553.22 185.68 1553.44 174.03C1553.53 169.25 1554.78 168.69 1559.97 169.84L1559.98 169.85Z" fill="white"/>
<path d="M1477.57 166.69C1462.68 160.58 1447.6 157.32 1431.88 157.08C1446.44 151.17 1468.5 155.89 1477.57 166.69Z" fill="white"/>
<path d="M909.6 185.52C909.99 188.8 910.61 192.07 910.71 195.36C910.92 201.93 910.84 208.51 910.87 215.09C910.87 216.22 911.22 217.59 910.71 218.43C910.08 219.48 908.81 220.44 907.64 220.74C907.05 220.89 905.98 219.57 905.29 218.78C904.97 218.41 904.93 217.69 904.96 217.13C905.52 206.65 906.1 196.17 906.68 185.7C907.65 185.64 908.61 185.58 909.58 185.53L909.6 185.52Z" fill="white"/>
<path d="M1166.8 180.31C1158.56 183.49 1144.06 183.96 1134.46 181.72C1135.01 179.11 1135.56 176.47 1136.14 173.71C1144.78 181.26 1156.47 173.87 1166.8 180.31Z" fill="white"/>
<path d="M494.72 166.59C493.04 166.59 491.36 166.58 489.68 166.57C488.85 165.99 488.02 165.41 487.04 164.71C496.07 158.33 513.1 156.03 521.41 160.15C516.98 163.84 511.89 161.1 507.54 162.32C503.21 163.54 498.99 165.15 494.72 166.59Z" fill="white"/>
<path d="M699.41 168.17C698.89 165.8 698.96 163.54 701.49 162.36C704.04 161.17 706.63 159.69 709.35 159.29C720.74 157.57 730.9 161.26 740.74 166C740.6 166.64 740.46 167.27 740.32 167.91C733.27 166.46 726.25 164.87 719.17 163.6C711.96 162.3 704.94 162.39 699.28 168.23C699.24 168.25 699.42 168.16 699.42 168.16L699.41 168.17Z" fill="white"/>
<path d="M1279.52 173.13C1258.93 162.17 1258.38 162.05 1236.1 163.67C1250.16 155.5 1270.69 159.97 1279.52 173.13Z" fill="white"/>
<path d="M2057.28 187.24C2064.54 182.28 2073.42 183.08 2078.74 188.63C2073.93 192.42 2066.58 192.06 2057.28 187.24Z" fill="white"/>
<path d="M1135.34 211.19C1135.24 210.09 1135.06 209 1135.06 207.9C1135.08 198.38 1136.19 197.3 1145.98 197.39C1149.64 197.43 1153.3 197.58 1157.02 198.58C1153.44 198.98 1149.87 199.4 1146.28 199.77C1141.25 200.283 1138.29 203.093 1137.42 208.2C1137.24 209.27 1136.94 210.33 1136.69 211.39C1136.24 211.32 1135.78 211.26 1135.33 211.19H1135.34Z" fill="white"/>
<path d="M979.4 181.55C979.13 191.39 978.86 201.24 978.6 210.8C976.59 205.21 976.44 195.58 979.4 181.55Z" fill="white"/>
<path d="M1788.59 179.18C1778.95 180.06 1769.77 180.9 1760.6 181.75C1766.8 176.31 1780.51 174.89 1788.59 179.18Z" fill="white"/>
<path d="M1184.42 174.86C1184.08 187.14 1183.75 199.42 1183.41 211.7L1182.26 211.68C1182.6 199.34 1182.93 187.01 1183.27 174.67C1183.65 174.73 1184.03 174.79 1184.42 174.86Z" fill="white"/>
<path d="M2057.94 207.73C2062.62 204.49 2067.41 204.22 2073.34 207.11C2067.72 211.02 2062.86 209.66 2057.94 207.73Z" fill="white"/>
<path d="M947.59 200.01C950.59 197.83 953.58 195.66 957.55 192.78C958.29 196.3 958.72 198.33 959.64 202.68C954.69 194.69 951.73 201.23 947.59 200.01Z" fill="white"/>
<path d="M918.18 209.47C918.65 204.96 919.12 200.45 919.6 195.93C920.13 195.99 920.67 196.04 921.2 196.1C920.85 200.65 920.49 205.2 920.14 209.74C919.49 209.65 918.84 209.56 918.19 209.46L918.18 209.47Z" fill="white"/>
<path d="M1564.93 210.39C1565.13 203.07 1565.33 195.75 1565.53 188.42H1565.98C1565.78 195.89 1565.57 203.36 1565.37 210.82C1565.22 210.68 1565.08 210.53 1564.93 210.39Z" fill="white"/>
<path d="M1282.84 207.51L1283.35 189.03C1283.5 189.03 1283.64 189.02 1283.79 189.01L1283.28 207.5C1283.13 207.5 1282.99 207.5 1282.84 207.51Z" fill="white"/>
<path d="M315.77 183.82C315.64 188.49 315.51 193.15 315.39 197.82L314.88 197.8L315.27 183.63C315.44 183.69 315.6 183.76 315.77 183.82Z" fill="white"/>
<path d="M268.68 201.11C272.8 201.22 276.93 201.34 281.05 201.45C281.08 201.72 281.1 201.99 281.13 202.26C276.97 202.53 272.8 202.8 268.64 203.06C268.65 202.41 268.67 201.76 268.68 201.11Z" fill="white"/>
<path d="M1435.59 225.88L1448.27 226.23C1448.27 226.38 1448.27 226.54 1448.28 226.69L1435.52 226.34C1435.54 226.19 1435.56 226.03 1435.58 225.88H1435.59Z" fill="white"/>
<path d="M1652.13 210.29C1652.52 206.91 1652.91 203.53 1653.29 200.15C1653.91 200.25 1654.53 200.35 1655.15 200.45C1654.4 203.77 1653.65 207.09 1652.9 210.4C1652.64 210.36 1652.38 210.32 1652.12 210.29H1652.13Z" fill="white"/>
<path d="M2047.25 201.37C2047.39 205.07 2047.53 208.76 2047.68 212.46C2047.44 212.46 2047.2 212.47 2046.95 212.48C2047.05 208.79 2047.15 205.09 2047.25 201.39V201.37Z" fill="white"/>
<path d="M599.49 202.09C599.14 202.44 598.78 202.81 598.41 203.18C598.1 202.83 597.78 202.48 597.47 202.14C597.69 201.96 597.93 201.61 598.12 201.64C598.61 201.71 599.08 201.95 599.49 202.1V202.09Z" fill="white"/>
<path d="M1557.69 222.76C1557.41 223.13 1557.13 223.5 1556.85 223.88C1556.38 223.5 1555.91 223.13 1555.43 222.75C1555.82 222.47 1556.2 221.98 1556.59 221.97C1556.95 221.97 1557.32 222.48 1557.68 222.77L1557.69 222.76Z" fill="white"/>
<path d="M1276.69 222.39C1276.58 222.25 1276.34 222 1276.36 221.97C1276.7 221.6 1277.06 221.25 1277.43 220.9C1277.58 221.11 1277.73 221.32 1277.88 221.52C1277.48 221.81 1277.08 222.09 1276.68 222.38L1276.69 222.39Z" fill="white"/>
<path d="M827.33 230.23C828.02 230.2 828.7 230.15 829.39 230.15C829.5 230.15 829.6 230.39 829.71 230.52L827.34 230.46C827.34 230.39 827.34 230.31 827.34 230.24L827.33 230.23Z" fill="white"/>
<path d="M394.93 221.56L401.51 221.74V222.23C399.29 222.17 397.09 222.11 394.89 222.05C394.9 221.89 394.92 221.72 394.93 221.56Z" fill="black"/>
<path d="M385.27 188.78L388.6 188.87C388.6 188.95 388.6 189.03 388.6 189.11L385.27 189.02C385.27 188.94 385.27 188.86 385.27 188.78Z" fill="black"/>
<path d="M1773.74 216.51H1774.55L1774.45 216.71L1773.74 216.51Z" fill="black"/>
<path d="M1466.86 199.51C1464.36 204.49 1460.55 205.93 1455.53 205.62C1452.69 205.45 1449.82 205.68 1446.96 205.6C1439.33 205.37 1438.31 204.4 1437.65 196.59C1437.46 194.32 1437.52 192.02 1437.54 189.74C1437.55 187.48 1437.65 185.22 1437.24 182.91C1435.63 192.4 1437.67 202.43 1432.13 213.11C1431.19 209.76 1430.21 207.82 1430.16 205.86C1429.92 196.44 1429.81 187.01 1429.91 177.59C1429.98 170.78 1431.91 168.61 1438.73 169.21C1446.93 169.93 1455.15 171.26 1463.15 173.17C1469.79 174.76 1472.24 178.76 1472.39 185.81C1472.51 191.23 1472.5 196.66 1472.31 202.08C1472.11 208.16 1469.98 210.28 1463.41 211.73C1464.52 207.78 1465.69 203.64 1466.86 199.51ZM1442.36 172.98C1442.27 173.56 1442.18 174.15 1442.09 174.73L1450.29 174.95C1450.31 174.61 1450.34 174.26 1450.36 173.92C1447.69 173.61 1445.03 173.29 1442.36 172.98Z" fill="black"/>
<path d="M1452.14 213.37L1441.76 213.09C1445.18 210.6 1448.65 211.06 1452.14 213.37Z" fill="black"/>
<path d="M1237.05 212.68C1238.78 213.27 1240.48 214.24 1242.24 214.39C1247 214.78 1251.95 215.65 1256.55 214.81C1264.46 213.37 1265.47 211.35 1265.21 203.02C1265.14 200.74 1265.15 198.45 1265.17 196.16C1265.19 194.18 1265.27 192.21 1263.99 190.16C1263.89 193.98 1263.85 197.81 1263.66 201.62C1263.46 205.56 1261.18 208.11 1257.47 208.83C1254.15 209.47 1250.66 209.74 1247.29 209.5C1240.13 209.01 1239.21 207.86 1238.65 200.63C1238.58 199.78 1238.53 198.92 1238.48 198.06C1237.66 182.73 1237.76 182.6 1252.39 177.99C1249.38 177.91 1246.29 177.38 1243.36 177.84C1237.42 178.77 1235.87 180.97 1235.83 187.12C1235.8 191.41 1235.88 195.7 1235.74 199.98C1235.65 202.79 1235.52 205.72 1231.22 207.69C1229.57 198.51 1228.92 189.91 1231.75 181.51C1232.52 179.23 1235.37 176.97 1237.79 176.05C1245.76 173.01 1254.01 172.89 1262.14 175.72C1268.87 178.06 1270.47 180.52 1270.87 187.71C1271.19 193.39 1271.67 199.06 1272.16 204.73C1272.5 208.62 1269.79 213.56 1265.71 214.69C1256.01 217.36 1246.27 217.74 1237.04 212.67L1237.05 212.68Z" fill="black"/>
<path d="M180.57 160.41L188.37 160.62C188.37 160.91 188.35 161.19 188.35 161.48L180.55 161.27C180.55 160.98 180.57 160.7 180.57 160.41Z" fill="black"/>
<path d="M2082.96 223.36C2079.17 224 2075.38 224.63 2071.58 225.27C2071.51 224.67 2071.45 224.06 2071.38 223.46C2075.13 221.92 2079.07 222.58 2083.05 223.41C2083.08 223.43 2082.96 223.37 2082.96 223.37V223.36Z" fill="black"/>
<path d="M613.68 171.76C610.19 177.97 603.88 180.59 598.14 183.94C602.18 178.36 608.15 175.31 613.89 171.94L613.68 171.77V171.76Z" fill="black"/>
<path d="M613.89 171.94C618.39 169.35 622.89 166.75 627.42 164.17C627.44 164.17 627.2 164.04 627.23 164.06C623.13 167.32 619.55 171.54 613.71 171.77C613.7 171.77 613.9 171.94 613.9 171.94H613.89Z" fill="black"/>
<path d="M1976.35 193.36C1977.58 190.36 1978.82 187.36 1980.83 182.46C1985.52 191.79 1989.23 199.17 1993.48 207.64C1984.61 207.81 1976.99 207.95 1968.79 208.11C1969.09 202.13 1972.54 197.52 1976.52 193.19C1975.26 196.88 1974.01 200.56 1972.41 205.27C1976.88 205.39 1980.19 205.48 1985.52 205.63C1981.69 200.5 1979.02 196.94 1976.35 193.37V193.36Z" fill="black"/>
<path d="M1442.36 172.98C1445.03 173.29 1447.69 173.61 1450.36 173.92C1450.34 174.26 1450.31 174.61 1450.29 174.95L1442.09 174.73C1442.18 174.15 1442.27 173.56 1442.36 172.98Z" fill="white"/>
<path d="M1976.35 193.36C1979.02 196.93 1981.69 200.49 1985.52 205.62C1980.2 205.47 1976.88 205.38 1972.41 205.26C1974.01 200.55 1975.26 196.87 1976.52 193.18C1976.54 193.16 1976.35 193.36 1976.35 193.36Z" fill="white"/>
</g>
<defs>
<clipPath id="clip0_1_66">
<rect width="2234" height="432" fill="white"/>
</clipPath>
</defs>
</svg>
